<svg width="9" height="5" viewBox="0 0 9 5" fill="none" xmlns="http://www.w3.org/2000/svg">
<path d="M4.08317 1.40837L7.17069 4.49589C7.3985 4.7237 7.76784 4.7237 7.99565 4.49589C8.22346 4.26809 8.22346 3.89874 7.99565 3.67094L4.49565 0.170936C4.26784 -0.05687 3.8985 -0.05687 3.67069 0.170936L0.170691 3.67094C-0.0571146 3.89874 -0.0571146 4.26809 0.170691 4.49589C0.398497 4.7237 0.767844 4.7237 0.995649 4.49589L4.08317 1.40837Z" fill="#646464"/>
<mask id="mask0_351_38086" style="mask-type:luminance" maskUnits="userSpaceOnUse" x="-1" y="0" width="10" height="5">
<path d="M4.08317 1.40837L7.17069 4.49589C7.3985 4.7237 7.76784 4.7237 7.99565 4.49589C8.22346 4.26809 8.22346 3.89874 7.99565 3.67094L4.49565 0.170936C4.26784 -0.05687 3.8985 -0.05687 3.67069 0.170936L0.170691 3.67094C-0.0571146 3.89874 -0.0571146 4.26809 0.170691 4.49589C0.398497 4.7237 0.767844 4.7237 0.995649 4.49589L4.08317 1.40837Z" fill="white"/>
</mask>
<g mask="url(#mask0_351_38086)">
</g>
</svg>
