<svg width="40" height="40" viewBox="0 0 40 40" fill="none" xmlns="http://www.w3.org/2000/svg">
<g opacity="0.5">
<path fill-rule="evenodd" clip-rule="evenodd" d="M20 33.333C27.3638 33.333 33.3334 27.3635 33.3334 19.9997C33.3334 12.6359 27.3638 6.66634 20 6.66634C12.6362 6.66634 6.66671 12.6359 6.66671 19.9997C6.66671 27.3635 12.6362 33.333 20 33.333ZM20 36.6663C29.2048 36.6663 36.6667 29.2044 36.6667 19.9997C36.6667 10.7949 29.2048 3.33301 20 3.33301C10.7953 3.33301 3.33337 10.7949 3.33337 19.9997C3.33337 29.2044 10.7953 36.6663 20 36.6663Z" fill="white"/>
<path d="M15 15.0052C15 13.7108 16.4111 12.9104 17.522 13.5747L25.8506 18.5552C26.9432 19.2085 26.9432 20.7913 25.8506 21.4446L17.522 26.4248C16.4111 27.0891 15 26.2887 15 24.9944V15.0052Z" fill="white"/>
</g>
</svg>
